<?xml version="1.0" encoding="iso-8859-1"?>
<!-- Generator: Adobe Illustrator 19.0.0, SVG Export Plug-In . SVG Version: 6.00 Build 0)  -->
<svg version="1.1" id="Capa_1" xmlns="http://www.w3.org/2000/svg" xmlns:xlink="http://www.w3.org/1999/xlink" x="0px" y="0px"
	 viewBox="0 0 512.003 512.003" style="enable-background:new 0 0 512.003 512.003;" xml:space="preserve">
<g>
	<path style="fill:#5381D3;" d="M34.601,10h442.801c13.53,0,24.6,11.07,24.6,24.6v442.801c0,13.53-11.07,24.6-24.6,24.6H34.601
		c-13.53,0-24.6-11.07-24.6-24.6V34.6C10,21.07,21.07,10,34.601,10z"/>
	<path style="fill:#A7A7A7;" d="M87.523,10h389.878c13.53,0,24.6,11.07,24.6,24.6v442.801c0,13.53-11.07,24.6-24.6,24.6H87.523V10z"
		/>
	<path style="fill:#FF8346;" d="M268.504,111.147v66.837c0-11.032,9.026-20.058,20.058-20.058c11.007,0,20.016,8.984,20.058,19.982
		c0-0.006,0-0.011,0-0.017c0.05-10.99,9.056-19.965,20.058-19.965c11.032,0,20.058,9.026,20.058,20.058v-36.836
		c0-11.031,9.026-20.058,20.058-20.058c11.031,0,20.058,9.026,20.058,20.058v66.638v51.177c0,28.147-25.139,51.177-55.863,51.177
		h-56.392c-30.725,0-55.864-23.03-55.864-51.177v-21.126c-11.032,0-20.058-9.026-20.058-20.058s9.026-20.058,20.058-20.058h7.657
		v-86.574c0-11.032,9.026-20.058,20.058-20.058C259.478,91.09,268.504,100.115,268.504,111.147z"/>
</g>
<path d="M477.401,0h-442.8C15.521,0,0,15.521,0,34.601v442.801c0,19.079,15.521,34.6,34.601,34.6h94.36l0,0c5.522,0,10-4.477,10-10
	s-4.478-10-10-10H97.523V20h379.878c8.051,0,14.601,6.55,14.601,14.601v442.801c0,8.05-6.55,14.6-14.601,14.6H207.929
	c-5.523,0-10,4.477-10,10s4.477,10,10,10h269.473c19.079,0,34.601-15.522,34.601-34.6V34.601C512.002,15.521,496.48,0,477.401,0z
	 M77.523,492.003H34.601c-8.051,0-14.601-6.55-14.601-14.6V34.601C20,26.55,26.55,20,34.601,20h42.923L77.523,492.003
	L77.523,492.003z"/>
<path d="M405.304,39.91h-41.438c-5.522,0-10,4.477-10,10s4.478,10,10,10h41.438c5.522,0,10-4.477,10-10S410.826,39.91,405.304,39.91
	z"/>
<path d="M434.389,59.91h0.475c5.522,0,10-4.477,10-10s-4.478-10-10-10h-0.475c-5.522,0-10,4.477-10,10S428.866,59.91,434.389,59.91z
	"/>
<path d="M178.844,492.003h-0.475c-5.523,0-10,4.477-10,10s4.477,10,10,10h0.475c5.523,0,10-4.477,10-10
	S184.366,492.003,178.844,492.003z"/>
<path d="M349.865,430.158c1.032,0.337,2.078,0.498,3.108,0.498c4.209,0,8.125-2.679,9.503-6.896l1.429-4.374h18.871l1.429,4.374
	c1.716,5.249,7.364,8.113,12.611,6.399c5.25-1.716,8.114-7.362,6.398-12.612l-3.63-11.107c-0.008-0.026-0.017-0.051-0.025-0.077
	l-16.715-51.144c-1.344-4.112-5.179-6.894-9.505-6.894c-4.326,0-8.161,2.782-9.505,6.894l-16.707,51.123
	c-0.012,0.036-0.024,0.072-0.036,0.109l-3.626,11.095C341.751,422.796,344.615,428.442,349.865,430.158z M376.24,399.386h-5.797
	l2.898-8.869L376.24,399.386z"/>
<path d="M316.491,430.654c5.522,0,10-4.477,10-10v-52.328h9.5c5.522,0,10-4.477,10-10s-4.478-10-10-10h-39c-5.522,0-10,4.477-10,10
	s4.478,10,10,10h9.5v52.328C306.491,426.176,310.969,430.654,316.491,430.654z"/>
<path d="M267.221,368.327c5.522,0,10-4.477,10-10s-4.478-10-10-10h-28.98c-0.007,0-0.013-0.001-0.019-0.001c-5.522,0-10,4.477-10,10
	v62.328c0,5.523,4.478,10,10,10h28.999c5.522,0,10-4.477,10-10s-4.478-10-10-10h-18.999V399.49h8.999c5.522,0,10-4.477,10-10
	s-4.478-10-10-10h-8.999v-11.163H267.221z"/>
<path d="M167.444,427.729c0.22,0.212,0.449,0.416,0.691,0.61c0.107,0.086,0.215,0.17,0.326,0.252
	c0.224,0.165,0.457,0.319,0.698,0.467c0.106,0.065,0.208,0.135,0.315,0.196c0.027,0.015,0.051,0.033,0.078,0.048
	c0.165,0.091,0.337,0.158,0.505,0.238c0.195,0.094,0.386,0.196,0.587,0.277c0.266,0.108,0.535,0.19,0.805,0.273
	c0.134,0.042,0.265,0.095,0.402,0.13c0.35,0.092,0.703,0.157,1.056,0.21c0.068,0.01,0.133,0.029,0.201,0.038
	c0.426,0.055,0.853,0.085,1.279,0.085c0.003,0,0.006,0,0.009,0s0.006,0,0.009,0c0.426,0,0.852-0.03,1.279-0.085
	c0.069-0.009,0.135-0.028,0.204-0.038c0.353-0.053,0.705-0.118,1.054-0.21c0.133-0.035,0.26-0.086,0.391-0.127
	c0.274-0.085,0.548-0.168,0.818-0.277c0.192-0.078,0.375-0.176,0.563-0.266c0.175-0.084,0.354-0.153,0.526-0.248
	c0.028-0.016,0.053-0.035,0.081-0.051c0.103-0.058,0.201-0.126,0.302-0.188c0.245-0.15,0.484-0.308,0.711-0.476
	c0.108-0.08,0.214-0.162,0.319-0.246c0.244-0.196,0.476-0.401,0.698-0.616c0.064-0.062,0.132-0.12,0.194-0.184
	c0.287-0.294,0.553-0.603,0.799-0.926c0.044-0.059,0.085-0.121,0.128-0.181c0.211-0.291,0.405-0.591,0.583-0.901
	c0.028-0.048,0.062-0.089,0.089-0.138l15.693-28.353v23.612c0,5.523,4.477,10,10,10c5.522,0,10-4.477,10-10v-62.213
	c0-0.021,0-0.043,0-0.065v-0.05c0-0.068-0.009-0.133-0.01-0.2c-0.005-0.252-0.014-0.504-0.038-0.754
	c-0.014-0.154-0.041-0.304-0.063-0.455c-0.024-0.165-0.043-0.331-0.075-0.494c-0.036-0.19-0.085-0.374-0.132-0.56
	c-0.032-0.124-0.059-0.25-0.096-0.373c-0.057-0.193-0.125-0.381-0.194-0.569c-0.042-0.116-0.081-0.232-0.127-0.347
	c-0.071-0.175-0.151-0.344-0.231-0.513c-0.06-0.127-0.117-0.254-0.183-0.379c-0.076-0.145-0.16-0.285-0.243-0.425
	c-0.084-0.143-0.167-0.287-0.258-0.426c-0.076-0.115-0.158-0.225-0.239-0.336c-0.111-0.154-0.221-0.309-0.341-0.457
	c-0.076-0.094-0.158-0.183-0.238-0.274c-0.133-0.152-0.266-0.305-0.409-0.45c-0.089-0.09-0.183-0.173-0.275-0.259
	c-0.141-0.133-0.281-0.266-0.431-0.391c-0.126-0.106-0.26-0.202-0.392-0.302c-0.124-0.093-0.243-0.19-0.372-0.278
	c-0.208-0.143-0.425-0.273-0.644-0.4c-0.057-0.033-0.11-0.072-0.168-0.104c-0.006-0.004-0.013-0.006-0.02-0.01
	c-0.736-0.406-1.53-0.713-2.364-0.924c-0.807-0.206-1.625-0.315-2.439-0.316c-0.007,0-0.013-0.001-0.02-0.001
	c-0.06,0-0.118,0.008-0.178,0.009c-0.261,0.005-0.522,0.014-0.781,0.039c-0.144,0.014-0.284,0.039-0.426,0.059
	c-0.176,0.025-0.352,0.046-0.525,0.08c-0.179,0.035-0.353,0.081-0.529,0.125c-0.135,0.034-0.271,0.065-0.405,0.104
	c-0.183,0.054-0.36,0.119-0.538,0.183c-0.126,0.045-0.254,0.088-0.378,0.138c-0.165,0.067-0.326,0.143-0.486,0.219
	c-0.136,0.064-0.272,0.125-0.405,0.195c-0.137,0.072-0.27,0.152-0.403,0.23c-0.15,0.088-0.301,0.175-0.447,0.271
	c-0.109,0.072-0.212,0.149-0.318,0.225c-0.16,0.115-0.32,0.23-0.474,0.355c-0.089,0.072-0.173,0.15-0.26,0.225
	c-0.157,0.136-0.313,0.273-0.463,0.42c-0.087,0.085-0.167,0.176-0.25,0.265c-0.135,0.144-0.272,0.286-0.399,0.439
	c-0.105,0.125-0.2,0.258-0.299,0.388c-0.094,0.124-0.192,0.245-0.281,0.375c-0.143,0.208-0.273,0.425-0.4,0.644
	c-0.033,0.057-0.072,0.109-0.104,0.167l-0.023,0.043c-0.011,0.02-0.022,0.039-0.033,0.059l-25.637,46.318l-25.636-46.318
	c-0.011-0.02-0.022-0.039-0.033-0.059l-0.023-0.043c-0.032-0.058-0.071-0.11-0.104-0.168c-0.127-0.219-0.257-0.436-0.4-0.644
	c-0.088-0.129-0.185-0.248-0.278-0.372c-0.1-0.132-0.197-0.266-0.303-0.392c-0.124-0.149-0.257-0.288-0.389-0.428
	c-0.087-0.093-0.171-0.188-0.262-0.277c-0.144-0.141-0.294-0.273-0.445-0.405c-0.093-0.081-0.184-0.165-0.28-0.242
	c-0.146-0.118-0.297-0.227-0.449-0.336c-0.115-0.083-0.228-0.167-0.346-0.245c-0.135-0.088-0.273-0.169-0.412-0.25
	c-0.146-0.086-0.291-0.173-0.441-0.252c-0.118-0.062-0.239-0.116-0.359-0.173c-0.176-0.084-0.352-0.167-0.534-0.24
	c-0.106-0.043-0.215-0.079-0.322-0.118c-0.197-0.072-0.393-0.143-0.595-0.202c-0.111-0.033-0.225-0.058-0.337-0.087
	c-0.197-0.051-0.394-0.102-0.596-0.141c-0.147-0.029-0.297-0.046-0.445-0.068c-0.168-0.025-0.334-0.053-0.504-0.069
	c-0.227-0.022-0.456-0.028-0.685-0.035c-0.088-0.002-0.174-0.013-0.262-0.013c-0.01,0-0.019,0.001-0.029,0.001
	c-0.313,0.001-0.626,0.017-0.939,0.047c-0.019,0.002-0.038,0.001-0.057,0.003c-0.327,0.034-0.653,0.083-0.978,0.149
	c-0.004,0.001-0.008,0.001-0.012,0.002c-0.126,0.026-0.25,0.065-0.375,0.096c-0.857,0.211-1.674,0.523-2.428,0.939
	c-0.008,0.004-0.016,0.007-0.024,0.012c-0.07,0.039-0.133,0.085-0.202,0.126c-0.205,0.121-0.41,0.242-0.606,0.376
	c-0.136,0.093-0.262,0.194-0.391,0.293c-0.125,0.095-0.253,0.187-0.374,0.288c-0.153,0.128-0.296,0.264-0.44,0.4
	c-0.089,0.083-0.18,0.164-0.265,0.251c-0.145,0.147-0.28,0.301-0.415,0.456c-0.078,0.089-0.157,0.176-0.232,0.267
	c-0.122,0.15-0.234,0.306-0.346,0.463c-0.079,0.11-0.16,0.218-0.235,0.331c-0.092,0.14-0.176,0.285-0.261,0.429
	c-0.083,0.14-0.166,0.278-0.242,0.422c-0.066,0.125-0.123,0.254-0.184,0.381c-0.08,0.169-0.16,0.337-0.23,0.511
	c-0.047,0.115-0.085,0.232-0.128,0.349c-0.068,0.188-0.136,0.375-0.193,0.568c-0.037,0.123-0.064,0.249-0.096,0.374
	c-0.047,0.185-0.095,0.37-0.132,0.559c-0.032,0.164-0.052,0.33-0.076,0.495c-0.021,0.151-0.048,0.301-0.063,0.455
	c-0.024,0.25-0.033,0.502-0.038,0.754c-0.001,0.067-0.01,0.133-0.01,0.2v0.05c0,0.022,0,0.043,0,0.065v62.213
	c0,5.523,4.477,10,10,10c5.522,0,10-4.477,10-10v-23.611l15.692,28.352c0.027,0.049,0.062,0.091,0.09,0.139
	c0.177,0.309,0.37,0.608,0.581,0.898c0.044,0.061,0.085,0.124,0.13,0.184c0.245,0.322,0.511,0.631,0.797,0.924
	C167.308,427.606,167.378,427.665,167.444,427.729z"/>
<path d="M414.851,358.326v62.328c0,5.523,4.478,10,10,10h24.723c5.522,0,10-4.477,10-10s-4.478-10-10-10h-14.723v-52.328
	c0-5.523-4.477-10-10-10S414.851,352.803,414.851,358.326z"/>
<path d="M248.446,81.089c-16.574,0-30.058,13.484-30.058,30.058v76.674c-15.482,1.201-27.715,14.173-27.715,29.958
	c0,13.069,8.386,24.21,20.058,28.341v12.843c0,33.733,29.546,61.177,65.863,61.177h56.393c36.317,0,65.863-27.444,65.863-61.177
	V141.148c0-16.574-13.483-30.058-30.058-30.058s-30.058,13.484-30.058,30.058v8.515c-3.147-1.121-6.531-1.736-10.058-1.736
	c-7.702,0-14.733,2.915-20.058,7.695c-5.324-4.78-12.356-7.695-20.058-7.695c-3.527,0-6.912,0.616-10.059,1.737v-38.516
	C278.504,94.573,265.021,81.089,248.446,81.089z M248.446,101.089c5.546,0,10.058,4.512,10.058,10.058v76.574h-20.115v-76.574
	C238.389,105.601,242.9,101.089,248.446,101.089z M220.732,207.721h77.889l0,0v10.058c0,5.17-5.495,10.058-11.308,10.058l0,0
	h-66.581c-5.546,0-10.058-4.512-10.058-10.058C210.674,212.233,215.186,207.721,220.732,207.721z M298.55,245.756
	c-0.591,4.986-4.845,8.866-9.987,8.866c-4.4,0-8.15-2.841-9.511-6.785h8.261c0.512,0,1.022-0.014,1.528-0.038
	c0.17-0.008,0.337-0.025,0.506-0.036c0.336-0.022,0.672-0.044,1.005-0.076c0.201-0.019,0.401-0.047,0.602-0.07
	c0.298-0.035,0.596-0.069,0.892-0.113c0.213-0.031,0.423-0.069,0.635-0.104c0.28-0.047,0.561-0.094,0.839-0.148
	c0.216-0.042,0.43-0.09,0.645-0.136c0.271-0.059,0.541-0.119,0.809-0.184c0.215-0.053,0.429-0.109,0.643-0.167
	c0.264-0.071,0.528-0.144,0.79-0.221c0.211-0.063,0.421-0.127,0.63-0.194c0.261-0.083,0.521-0.169,0.779-0.259
	c0.205-0.071,0.409-0.143,0.611-0.218C298.333,245.832,298.443,245.797,298.55,245.756z M358.735,141.148
	c0-5.546,4.512-10.058,10.058-10.058s10.058,4.512,10.058,10.058v117.815c0,22.705-20.574,41.177-45.863,41.177h-56.393
	c-25.289,0-45.863-18.472-45.863-41.177v-11.127h27.955c1.636,15.04,14.408,26.785,29.876,26.785c7.702,0,14.733-2.915,20.058-7.695
	c5.324,4.78,12.356,7.695,20.058,7.695c16.574,0,30.058-13.484,30.058-30.058V141.148H358.735z M328.678,167.926
	c5.546,0,10.058,4.512,10.058,10.058v66.581c0,5.546-4.512,10.058-10.058,10.058s-10.058-4.512-10.058-10.058l0,0v-66.581l0,0
	C318.62,172.438,323.132,167.926,328.678,167.926z M278.505,177.984c0-5.546,4.512-10.058,10.058-10.058s10.058,4.512,10.058,10.058
	v9.737h-20.115v-9.737H278.505z"/>
<g>
</g>
<g>
</g>
<g>
</g>
<g>
</g>
<g>
</g>
<g>
</g>
<g>
</g>
<g>
</g>
<g>
</g>
<g>
</g>
<g>
</g>
<g>
</g>
<g>
</g>
<g>
</g>
<g>
</g>
</svg>
